<svg width="352.00000000000006" height="93" xmlns="http://www.w3.org/2000/svg">

 <g>
  <title>background</title>
  <rect fill="none" id="canvas_background" height="95" width="354" y="-1" x="-1"/>
 </g>
 <g>
  <title>Layer 1</title>
  <g transform="rotate(-128 67.195068359375,49.73674392700195) " stroke="null" fill-rule="evenodd" fill="none" id="Page-1">
   <g stroke="null" fill-rule="nonzero" id="042---Bacteria">
    <path stroke="null" fill="#de4d60" d="m72.81423,5.70283c-0.76446,0.00392 -1.46491,-0.39983 -1.80662,-1.04132l-3.61325,-6.77894c-0.49556,-0.93077 -0.09292,-2.06217 0.8993,-2.52704s2.19832,-0.08717 2.69387,0.8436l3.61325,6.77894c0.31024,0.58237 0.27778,1.27372 -0.08581,1.82826c-0.36359,0.55454 -1.00673,0.89354 -1.70073,0.8965z" id="Shape"/>
    <path stroke="null" fill="#de4d60" d="m59.96714,16.24784c-0.30992,0.0029 -0.61636,-0.06154 -0.89528,-0.1883l-8.83238,-4.14268c-0.99222,-0.46487 -1.39485,-1.59627 -0.8993,-2.52704c0.49556,-0.93077 1.70166,-1.30847 2.69387,-0.8436l8.83238,4.14268c0.82272,0.39533 1.25129,1.26655 1.03809,2.11028s-1.01305,1.4418 -1.93738,1.44866z" id="Shape"/>
    <path stroke="null" fill="#de4d60" d="m57.15683,29.0525l-10.03679,0c-1.10862,0 -2.00736,-0.84307 -2.00736,-1.88304s0.89873,-1.88304 2.00736,-1.88304l10.03679,0c1.10862,0 2.00736,0.84307 2.00736,1.88304s-0.89873,1.88304 -2.00736,1.88304z" id="Shape"/>
    <path stroke="null" fill="#de4d60" d="m48.50713,52.51893c-0.39515,-0.00066 -0.7813,-0.1107 -1.11007,-0.31635l-7.41317,-4.63604c-0.92238,-0.57719 -1.17133,-1.74652 -0.55604,-2.61177c0.6153,-0.86526 1.86182,-1.09879 2.78421,-0.5216l7.41117,4.63604c0.73632,0.46057 1.06422,1.31914 0.80722,2.11354c-0.25702,0.79442 -1.03831,1.3372 -1.92331,1.33619z" id="Shape"/>
    <path stroke="null" fill="#de4d60" d="m33.06853,66.71327c-0.53233,-0.00011 -1.04284,-0.19857 -1.4192,-0.55173l-8.02943,-7.53215c-0.76073,-0.73887 -0.74985,-1.91332 0.02445,-2.63968c0.77432,-0.72634 2.02631,-0.73655 2.81396,-0.02294l8.02943,7.53215c0.57392,0.53853 0.74557,1.34833 0.43495,2.05185c-0.31064,0.70354 -1.04238,1.16232 -1.85416,1.16249z" id="Shape"/>
    <path stroke="null" fill="#de4d60" d="m27.04646,81.77758l-10.03679,0c-1.10862,0 -2.00736,-0.84307 -2.00736,-1.88304s0.89873,-1.88304 2.00736,-1.88304l10.03679,0c1.10862,0 2.00736,0.84307 2.00736,1.88304s-0.89873,1.88304 -2.00736,1.88304z" id="Shape"/>
    <path stroke="null" fill="#de4d60" d="m47.12004,106.25708c-1.10862,0 -2.00736,-0.84307 -2.00736,-1.88304l0,-9.41519c0,-1.03996 0.89873,-1.88304 2.00736,-1.88304s2.00736,0.84307 2.00736,1.88304l0,9.41519c0,1.03996 -0.89873,1.88304 -2.00736,1.88304z" id="Shape"/>
    <path stroke="null" fill="#de4d60" d="m27.04646,100.60796c-0.81178,-0.00017 -1.54352,-0.45895 -1.85416,-1.16249c-0.31062,-0.70352 -0.13897,-1.51332 0.43495,-2.05185l6.02208,-5.64912c0.78765,-0.71362 2.03964,-0.70341 2.81396,0.02294c0.7743,0.72636 0.78518,1.90081 0.02445,2.63968l-6.02208,5.64912c-0.37636,0.35316 -0.88687,0.55162 -1.4192,0.55173z" id="Shape"/>
    <path stroke="null" fill="#de4d60" d="m67.19363,104.37404c-0.76446,0.00392 -1.46491,-0.39983 -1.80662,-1.04132l-4.81766,-9.03858c-0.48514,-0.92873 -0.08098,-2.0507 0.90526,-2.51301c0.98624,-0.46232 2.18539,-0.09195 2.68591,0.82957l4.81766,9.03858c0.31008,0.58207 0.27782,1.27305 -0.08527,1.82747s-1.00563,0.89369 -1.69927,0.89729z" id="Shape"/>
    <path stroke="null" fill="#de4d60" d="m93.28929,91.19277c-0.53233,-0.00011 -1.04284,-0.19857 -1.4192,-0.55173l-8.02943,-7.53215c-0.76073,-0.73887 -0.74985,-1.91332 0.02445,-2.63968s2.02631,-0.73655 2.81396,-0.02294l8.02943,7.53215c0.57392,0.53853 0.74557,1.34833 0.43495,2.05185c-0.31064,0.70354 -1.04238,1.16232 -1.85416,1.16249z" id="Shape"/>
    <path stroke="null" fill="#de4d60" d="m109.34815,68.59631l-10.03679,0c-1.10862,0 -2.00736,-0.84307 -2.00736,-1.88304s0.89873,-1.88304 2.00736,-1.88304l10.03679,0c1.10862,0 2.00736,0.84307 2.00736,1.88304s-0.89873,1.88304 -2.00736,1.88304z" id="Shape"/>
    <path stroke="null" fill="#de4d60" d="m117.37759,44.11681l-8.02943,0c-1.10862,0 -2.00736,-0.84307 -2.00736,-1.88304s0.89873,-1.88304 2.00736,-1.88304l8.02943,0c1.10862,0 2.00736,0.84307 2.00736,1.88304s-0.89873,1.88304 -2.00736,1.88304z" id="Shape"/>
    <path stroke="null" fill="#de4d60" d="m108.94668,26.03964c-0.98284,-0.00209 -1.81953,-0.67144 -1.97691,-1.58151c-0.15738,-0.91009 0.41085,-1.79322 1.34258,-2.08665l8.43091,-2.63625c1.0532,-0.32863 2.19099,0.20587 2.54132,1.19385s-0.21946,2.0553 -1.27267,2.38393l-8.43091,2.63625c-0.20491,0.06184 -0.41908,0.09236 -0.63433,0.09039z" id="Shape"/>
    <path stroke="null" fill="#de4d60" d="m102.3224,11.16364c-0.81178,-0.00017 -1.54352,-0.45895 -1.85416,-1.16249s-0.13897,-1.51332 0.43495,-2.05185l5.0184,-4.7076c0.50399,-0.48951 1.25034,-0.68582 1.95218,-0.5135c0.70183,0.17234 1.24992,0.68648 1.43364,1.34485c0.18369,0.65837 -0.02557,1.3585 -0.54741,1.83127l-5.0184,4.7076c-0.37636,0.35316 -0.88687,0.55162 -1.4192,0.55173z" id="Shape"/>
    <path stroke="null" fill="#de4d60" d="m90.82023,6.34683c-0.16434,0.00032 -0.32814,-0.01802 -0.48779,-0.05461c-1.07536,-0.25274 -1.72872,-1.27536 -1.45935,-2.28413l2.46905,-9.30409c0.15382,-0.67176 0.68549,-1.2116 1.38721,-1.40855c0.70171,-0.19695 1.46206,-0.01973 1.98393,0.4624c0.52185,0.48211 0.72235,1.19258 0.52314,1.85378l-2.47106,9.30786c-0.22278,0.8379 -1.02456,1.42623 -1.94513,1.42734z" id="Shape"/>
    <path stroke="null" fill="#ff5364" d="m113.36287,27.76262l0,10.43203c0.01678,16.58158 -7.05317,32.47742 -19.62795,44.13089c-12.58007,11.74297 -29.61643,18.31901 -47.36362,18.28242c-12.45624,0.17911 -22.80193,-8.97411 -23.33956,-20.6494c-0.4194,-8.13934 3.65357,-15.90881 10.78152,-20.56655c10.95817,-6.8392 19.32885,-16.44269 19.32885,-32.22255c0.02156,-7.7211 3.40318,-15.09912 9.36182,-20.42566c5.95864,-5.32655 13.97754,-8.13964 22.19988,-7.78791c16.19334,0.93691 28.7794,13.58782 28.65906,28.80672z" id="Shape"/>
    <path stroke="null" fill="#fff" d="m75.22306,87.97089c-0.91429,0.00109 -1.71386,-0.57751 -1.94483,-1.40736c-0.23097,-0.82986 0.16505,-1.70127 0.96323,-2.11957c4.5503,-2.38766 8.73036,-5.34898 12.42354,-8.80132c5.80155,-5.36173 10.28474,-11.8474 13.13615,-19.00362c0.38802,-0.97445 1.54468,-1.46933 2.58347,-1.10534s1.56634,1.44902 1.17832,2.42347c-3.05233,7.66611 -7.85349,14.614 -14.06757,20.35753c-3.95247,3.69237 -8.42484,6.86013 -13.29273,9.41519c-0.2992,0.15755 -0.63647,0.24054 -0.97959,0.24103z" id="Shape"/>
    <path stroke="null" fill="#fff" d="m50.70719,57.29808c-0.7795,-0.00051 -1.4882,-0.42431 -1.81774,-1.08697s-0.22033,-1.44435 0.28011,-2.00498c3.3397,-3.71535 5.91404,-7.98071 7.59183,-12.5787c0.23093,-0.63709 0.80664,-1.11022 1.51026,-1.24117s1.42828,0.1002 1.90097,0.60634s0.62164,1.21042 0.39071,1.84751c-1.8375,5.03803 -4.65683,9.71196 -8.31448,13.78384c-0.38198,0.42794 -0.94665,0.67484 -1.54165,0.67413z" id="Shape"/>
    <g stroke="null" id="svg_1" fill="#338f7c">
     <path stroke="null" d="m83.25249,13.9882c-1.10862,0 -2.00736,-0.84307 -2.00736,-1.88304l0,-3.76608c0,-1.03996 0.89873,-1.88304 2.00736,-1.88304s2.00736,0.84307 2.00736,1.88304l0,3.76608c0,1.03996 -0.89873,1.88304 -2.00736,1.88304z" id="Shape"/>
     <path stroke="null" d="m74.21938,16.25914c-0.71785,0.00066 -1.38144,-0.35834 -1.74038,-0.94152l-2.00736,-3.26142c-0.3643,-0.58293 -0.36771,-1.30429 -0.00893,-1.89023c0.35878,-0.58595 1.02474,-0.94662 1.74506,-0.94513c0.72034,0.00149 1.3846,0.36491 1.74062,0.95233l2.00736,3.26142c0.35839,0.58231 0.35859,1.29971 0.00052,1.88221s-1.0201,0.94165 -1.73689,0.94235z" id="Shape"/>
     <path stroke="null" d="m67.60514,22.46187c-0.35247,0.0007 -0.69882,-0.08637 -1.00368,-0.25233l-3.47674,-1.88304c-0.6262,-0.33398 -1.01362,-0.95709 -1.0152,-1.63282s0.3829,-1.30043 1.00753,-1.63698c0.62463,-0.33656 1.39361,-0.33335 2.01503,0.00838l3.47674,1.88304c0.78676,0.42615 1.17033,1.29489 0.93519,2.11808c-0.23514,0.82321 -1.03036,1.39563 -1.93887,1.39567z" id="Shape"/>
     <path stroke="null" d="m65.18627,30.93554l-4.01472,0c-1.10862,0 -2.00736,-0.84307 -2.00736,-1.88304s0.89873,-1.88304 2.00736,-1.88304l4.01472,0c1.10862,0 2.00736,0.84307 2.00736,1.88304s-0.89873,1.88304 -2.00736,1.88304z" id="Shape"/>
     <path stroke="null" d="m64.13241,41.29225c-0.90851,-0.00004 -1.70373,-0.57246 -1.93887,-1.39567c-0.23514,-0.82319 0.14842,-1.69193 0.93519,-2.11808l3.47674,-1.88304c0.95924,-0.5116 2.17883,-0.201 2.73055,0.69542c0.55174,0.8964 0.22872,2.04249 -0.72319,2.566l-3.47674,1.88304c-0.30516,0.16529 -0.65131,0.25231 -1.00368,0.25233z" id="Shape"/>
     <path stroke="null" d="m72.21202,48.87337c-0.71679,-0.0007 -1.37879,-0.35987 -1.73689,-0.94235s-0.35787,-1.2999 0.00052,-1.88221l2.00736,-3.26142c0.35603,-0.58741 1.02028,-0.95084 1.74062,-0.95233s1.38628,0.35919 1.74506,0.94513c0.35878,0.58595 0.35536,1.3073 -0.00893,1.89023l-2.00736,3.26142c-0.35894,0.58318 -1.02253,0.94218 -1.74038,0.94152z" id="Shape"/>
     <path stroke="null" d="m83.25249,51.64897c-1.10862,0 -2.00736,-0.84307 -2.00736,-1.88304l0,-3.76608c0,-1.03996 0.89873,-1.88304 2.00736,-1.88304s2.00736,0.84307 2.00736,1.88304l0,3.76608c0,1.03996 -0.89873,1.88304 -2.00736,1.88304z" id="Shape"/>
     <path stroke="null" d="m94.29296,48.87337c-0.71785,0.00066 -1.38144,-0.35834 -1.74038,-0.94152l-2.00736,-3.26142c-0.3643,-0.58293 -0.36771,-1.30429 -0.00893,-1.89023c0.35878,-0.58595 1.02474,-0.94662 1.74506,-0.94513s1.3846,0.36491 1.74062,0.95233l2.00736,3.26142c0.35839,0.58231 0.35859,1.29971 0.00052,1.88221s-1.0201,0.94165 -1.73689,0.94235z" id="Shape"/>
     <path stroke="null" d="m102.37258,41.29225c-0.35237,-0.00002 -0.69852,-0.08703 -1.00368,-0.25233l-3.47674,-1.88304c-0.6262,-0.33398 -1.01362,-0.95709 -1.0152,-1.63282s0.3829,-1.30043 1.00753,-1.63698c0.62463,-0.33656 1.39361,-0.33335 2.01503,0.00838l3.47674,1.88304c0.78676,0.42615 1.17033,1.29489 0.93519,2.11808c-0.23514,0.82321 -1.03036,1.39563 -1.93887,1.39567z" id="Shape"/>
     <path stroke="null" d="m105.33344,30.93554l-4.01472,0c-1.10862,0 -2.00736,-0.84307 -2.00736,-1.88304s0.89873,-1.88304 2.00736,-1.88304l4.01472,0c1.10862,0 2.00736,0.84307 2.00736,1.88304s-0.89873,1.88304 -2.00736,1.88304z" id="Shape"/>
     <path stroke="null" d="m98.90989,22.46187c-0.90851,-0.00004 -1.70373,-0.57246 -1.93887,-1.39567c-0.23514,-0.82319 0.14842,-1.69193 0.93519,-2.11808l3.47674,-1.88304c0.62142,-0.34173 1.3904,-0.34493 2.01503,-0.00838c0.62463,0.33656 1.00912,0.96127 1.00753,1.63698s-0.38901,1.29884 -1.0152,1.63282l-3.47674,1.88304c-0.30486,0.16595 -0.65121,0.25302 -1.00368,0.25233z" id="Shape"/>
     <path stroke="null" d="m92.28561,16.25914c-0.71679,-0.0007 -1.37879,-0.35987 -1.73689,-0.94235s-0.35787,-1.2999 0.00052,-1.88221l2.00736,-3.26142c0.35603,-0.58741 1.02028,-0.95084 1.74062,-0.95233c0.72032,-0.00149 1.38628,0.35919 1.74506,0.94513c0.35878,0.58595 0.35536,1.3073 -0.00893,1.89023l-2.00736,3.26142c-0.35894,0.58318 -1.02253,0.94218 -1.74038,0.94152z" id="Shape"/>
     <path stroke="null" d="m49.1274,68.59631c-1.10862,0 -2.00736,-0.84307 -2.00736,-1.88304l0,-3.76608c0,-1.03996 0.89873,-1.88304 2.00736,-1.88304s2.00736,0.84307 2.00736,1.88304l0,3.76608c0,1.03996 -0.89873,1.88304 -2.00736,1.88304z" id="Shape"/>
     <path stroke="null" d="m43.10533,70.10274c-0.71785,0.00066 -1.38144,-0.35834 -1.74038,-0.94152l-2.00736,-3.26142c-0.54538,-0.89983 -0.21427,-2.04389 0.74134,-2.56144c0.95558,-0.51757 2.17734,-0.21455 2.73541,0.6784l2.00736,3.26142c0.35839,0.58231 0.35859,1.29971 0.00052,1.88221s-1.0201,0.94165 -1.73689,0.94235z" id="Shape"/>
     <path stroke="null" d="m38.68914,74.24543c-0.35247,0.0007 -0.69882,-0.08637 -1.00368,-0.25233l-3.47674,-1.88304c-0.95191,-0.5235 -1.27493,-1.6696 -0.72319,-2.566s1.77131,-1.20703 2.73055,-0.69542l3.47674,1.88304c0.78676,0.42615 1.17033,1.29489 0.93519,2.11808c-0.23514,0.82321 -1.03036,1.39563 -1.93887,1.39567z" id="Shape"/>
     <path stroke="null" d="m37.08325,79.89454l-4.01472,0c-1.10862,0 -2.00736,-0.84307 -2.00736,-1.88304s0.89873,-1.88304 2.00736,-1.88304l4.01472,0c1.10862,0 2.00736,0.84307 2.00736,1.88304s-0.89873,1.88304 -2.00736,1.88304z" id="Shape"/>
     <path stroke="null" d="m35.22243,87.42669c-0.90851,-0.00004 -1.70373,-0.57246 -1.93887,-1.39567s0.14842,-1.69193 0.93519,-2.11808l3.47674,-1.88304c0.62142,-0.34173 1.3904,-0.34493 2.01503,-0.00838c0.62463,0.33656 1.00912,0.96127 1.00753,1.63698s-0.38901,1.29884 -1.0152,1.63282l-3.47674,1.88304c-0.30516,0.16529 -0.65131,0.25231 -1.00368,0.25233z" id="Shape"/>
     <path stroke="null" d="m41.09797,92.94023c-0.71679,-0.0007 -1.37879,-0.35987 -1.73689,-0.94235s-0.35787,-1.2999 0.00052,-1.88221l2.00736,-3.26142c0.55807,-0.89296 1.77982,-1.19597 2.73541,-0.6784c0.9556,0.51755 1.28672,1.66161 0.74134,2.56144l-2.00736,3.26142c-0.35894,0.58318 -1.02253,0.94218 -1.74038,0.94152z" id="Shape"/>
     <path stroke="null" d="m49.1274,94.95885c-1.10862,0 -2.00736,-0.84307 -2.00736,-1.88304l0,-3.76608c0,-1.03996 0.89873,-1.88304 2.00736,-1.88304s2.00736,0.84307 2.00736,1.88304l0,3.76608c0,1.03996 -0.89873,1.88304 -2.00736,1.88304z" id="Shape"/>
     <path stroke="null" d="m57.15683,92.94023c-0.71785,0.00066 -1.38144,-0.35834 -1.74038,-0.94152l-2.00736,-3.26142c-0.3643,-0.58293 -0.36771,-1.30429 -0.00893,-1.89023c0.35878,-0.58595 1.02474,-0.94662 1.74506,-0.94513s1.3846,0.36491 1.74062,0.95233l2.00736,3.26142c0.35839,0.58231 0.35859,1.29971 0.00052,1.88221s-1.0201,0.94165 -1.73689,0.94235z" id="Shape"/>
     <path stroke="null" d="m63.03237,87.42669c-0.35237,-0.00002 -0.69852,-0.08703 -1.00368,-0.25233l-3.47674,-1.88304c-0.95191,-0.5235 -1.27493,-1.6696 -0.72319,-2.566c0.55172,-0.89642 1.77131,-1.20703 2.73055,-0.69542l3.47674,1.88304c0.78676,0.42615 1.17033,1.29489 0.93519,2.11808c-0.23514,0.82321 -1.03036,1.39563 -1.93887,1.39567z" id="Shape"/>
     <path stroke="null" d="m65.18627,79.89454l-4.01472,0c-1.10862,0 -2.00736,-0.84307 -2.00736,-1.88304s0.89873,-1.88304 2.00736,-1.88304l4.01472,0c1.10862,0 2.00736,0.84307 2.00736,1.88304s-0.89873,1.88304 -2.00736,1.88304z" id="Shape"/>
     <path stroke="null" d="m59.56566,74.24543c-0.90851,-0.00004 -1.70373,-0.57246 -1.93887,-1.39567c-0.23514,-0.82319 0.14842,-1.69193 0.93519,-2.11808l3.47674,-1.88304c0.95924,-0.5116 2.17883,-0.201 2.73055,0.69542c0.55174,0.8964 0.22872,2.04249 -0.72319,2.566l-3.47674,1.88304c-0.30486,0.16595 -0.65121,0.25302 -1.00368,0.25233z" id="Shape"/>
     <path stroke="null" d="m55.14948,70.10274c-0.71679,-0.0007 -1.37879,-0.35987 -1.73689,-0.94235s-0.35787,-1.2999 0.00052,-1.88221l2.00736,-3.26142c0.55807,-0.89296 1.77982,-1.19597 2.73541,-0.6784c0.9556,0.51755 1.28672,1.66161 0.74134,2.56144l-2.00736,3.26142c-0.35894,0.58318 -1.02253,0.94218 -1.74038,0.94152z" id="Shape"/>
    </g>
    <circle stroke="null" r="10.5378" fill="#26b899" cy="78.0115" cx="49.1274" id="Oval"/>
    <circle stroke="null" r="1.75631" fill="#f8e9af" cy="76.12846" cx="45.11268" id="Oval"/>
    <circle stroke="null" r="1.75631" fill="#f8e9af" cy="79.89454" cx="51.13476" id="Oval"/>
    <circle stroke="null" r="15.8067" fill="#26b899" cy="29.0525" cx="83.25249" id="Oval"/>
    <circle stroke="null" r="1.75631" fill="#f8e9af" cy="23.40339" cx="77.23042" id="Oval"/>
    <circle stroke="null" r="1.75631" fill="#f8e9af" cy="36.58466" cx="79.23778" id="Oval"/>
    <circle stroke="null" r="1.75631" fill="#f8e9af" cy="27.16947" cx="89.27457" id="Oval"/>
   </g>
  </g>
  <text stroke="#000" transform="matrix(1.298526406288147,0,0,1.1831418275833128,-85.821677332744,-39.17389084561) " xml:space="preserve" text-anchor="start" font-family="'Times New Roman', Times, serif" font-size="43" id="svg_3" y="77.57584" x="182.7448" stroke-width="0" fill="#ffffff">covid 19</text>
 </g>
</svg>